<svg width="192" height="192" viewBox="0 0 192 192" fill="none" xmlns="http://www.w3.org/2000/svg">
<path d="M96 86L81.9375 93.0312C77.2776 90.7013 69.7224 90.7013 65.0625 93.0312M96 86V76M96 86L106.568 91.2838M65.0625 93.0312V91.4688M65.0625 93.0312V101.469L51 108.5M51 108.5L36.9375 101.469V93.0312M51 108.5V98.5M141 108.5L126.938 101.469C122.278 103.799 114.722 103.799 110.062 101.469C107.734 100.304 106.569 98.7787 106.568 97.2527V91.2838M141 108.5L155.062 101.469V93.0312M141 108.5V98.5M36.9375 93.0312C32.2776 90.7013 24.7224 90.7013 20.0625 93.0312L6 86V76M36.9375 93.0312V91.4688M155.062 93.0312C159.722 90.7013 167.278 90.7013 171.938 93.0312L186 86V76M155.062 93.0312V91.4688M96 76L81.9375 83.0312C77.2776 80.7013 69.7224 80.7013 65.0625 83.0312C60.4026 85.3612 60.4026 89.1388 65.0625 91.4688M96 76L110.062 83.0312C107.733 84.1962 106.568 85.7231 106.568 87.25M65.0625 91.4688L51 98.5M51 98.5L36.9375 91.4688M141 98.5L126.938 91.4688C122.278 93.7987 114.722 93.7987 110.062 91.4688C107.733 90.3038 106.568 88.7769 106.568 87.25M141 98.5L155.062 91.4688M6 76L20.0625 83.0312C24.7224 80.7013 32.2776 80.7013 36.9375 83.0312C41.5974 85.3612 41.5974 89.1388 36.9375 91.4688M6 76L16.5676 70.7162M81.9375 46.4688C86.5974 44.1388 86.5974 40.3612 81.9375 38.0312M81.9375 46.4688C77.2776 48.7987 69.7224 48.7987 65.0625 46.4688L51 53.5L36.9375 60.5312C32.2776 58.2013 24.7224 58.2013 20.0625 60.5312C17.7325 61.6962 16.5676 63.2231 16.5676 64.75M81.9375 46.4688V38.0312M81.9375 38.0312L96 31L110.062 38.0312C114.722 35.7013 122.278 35.7013 126.938 38.0312C129.267 39.1962 130.432 40.7231 130.432 42.25M155.062 91.4688C150.403 89.1388 150.403 85.3612 155.062 83.0312C159.722 80.7013 167.278 80.7013 171.938 83.0312L186 76M186 76L175.432 70.7162M106.568 87.25V91.2838M130.432 42.25C130.432 43.7769 129.267 45.3038 126.938 46.4688L130.432 48.2162M130.432 42.25V48.2162M130.432 48.2162L141 53.5L155.062 60.5312C159.722 58.2013 167.278 58.2013 171.938 60.5312C174.267 61.6962 175.432 63.2231 175.432 64.75M175.432 64.75C175.432 66.2769 174.267 67.8038 171.938 68.9688L175.432 70.7162M175.432 64.75V70.7162M16.5676 64.75C16.5676 66.2769 17.7325 67.8038 20.0625 68.9688L16.5676 70.7162M16.5676 64.75V70.7162" stroke="#0066FF"/>
<path d="M6 86L20.0625 93.0312C24.7224 90.7013 32.2776 90.7013 36.9375 93.0312V91.4688C41.5974 89.1388 41.5974 85.3612 36.9375 83.0312C32.2776 80.7013 24.7224 80.7013 20.0625 83.0312L6 76V86Z" fill="#0066FF"/>
<path d="M36.9375 101.469L51 108.5V98.5L36.9375 91.4688V93.0312V101.469Z" fill="#0066FF"/>
<path d="M110.062 83.0312L96 76V86L106.568 91.2838V87.25C106.568 85.7231 107.733 84.1962 110.062 83.0312Z" fill="#0066FF"/>
<path d="M126.938 101.469L141 108.5V98.5L126.938 91.4688C122.278 93.7987 114.722 93.7987 110.062 91.4688C107.733 90.3038 106.568 88.7769 106.568 87.25V91.2838V97.2527C106.569 98.7787 107.734 100.304 110.062 101.469C114.722 103.799 122.278 103.799 126.938 101.469Z" fill="#0066FF"/>
<path d="M81.9375 46.4688C86.5974 44.1388 86.5974 40.3612 81.9375 38.0312V46.4688Z" fill="#0066FF"/>
<path d="M20.0625 68.9688C17.7325 67.8038 16.5676 66.2769 16.5676 64.75V70.7162L20.0625 68.9688Z" fill="#0066FF"/>
<path d="M96 86L81.9375 93.0312C77.2776 90.7013 69.7224 90.7013 65.0625 93.0312M96 86V76M96 86L106.568 91.2838M65.0625 93.0312V91.4688M65.0625 93.0312V101.469L51 108.5M51 108.5L36.9375 101.469V93.0312M51 108.5V98.5M141 108.5L126.938 101.469C122.278 103.799 114.722 103.799 110.062 101.469C107.734 100.304 106.569 98.7787 106.568 97.2527V91.2838M141 108.5L155.062 101.469V93.0312M141 108.5V98.5M36.9375 93.0312C32.2776 90.7013 24.7224 90.7013 20.0625 93.0312L6 86V76M36.9375 93.0312V91.4688M155.062 93.0312C159.722 90.7013 167.278 90.7013 171.938 93.0312L186 86V76M155.062 93.0312V91.4688M96 76L81.9375 83.0312C77.2776 80.7013 69.7224 80.7013 65.0625 83.0312C60.4026 85.3612 60.4026 89.1388 65.0625 91.4688M96 76L110.062 83.0312C107.733 84.1962 106.568 85.7231 106.568 87.25M65.0625 91.4688L51 98.5M51 98.5L36.9375 91.4688M141 98.5L126.938 91.4688C122.278 93.7987 114.722 93.7987 110.062 91.4688C107.733 90.3038 106.568 88.7769 106.568 87.25M141 98.5L155.062 91.4688M6 76L20.0625 83.0312C24.7224 80.7013 32.2776 80.7013 36.9375 83.0312C41.5974 85.3612 41.5974 89.1388 36.9375 91.4688M6 76L16.5676 70.7162M81.9375 46.4688C86.5974 44.1388 86.5974 40.3612 81.9375 38.0312M81.9375 46.4688C77.2776 48.7987 69.7224 48.7987 65.0625 46.4688L51 53.5L36.9375 60.5312C32.2776 58.2013 24.7224 58.2013 20.0625 60.5312C17.7325 61.6962 16.5676 63.2231 16.5676 64.75M81.9375 46.4688V38.0312M81.9375 38.0312L96 31L110.062 38.0312C114.722 35.7013 122.278 35.7013 126.938 38.0312C129.267 39.1962 130.432 40.7231 130.432 42.25M155.062 91.4688C150.403 89.1388 150.403 85.3612 155.062 83.0312C159.722 80.7013 167.278 80.7013 171.938 83.0312L186 76M186 76L175.432 70.7162M106.568 87.25V91.2838M130.432 42.25C130.432 43.7769 129.267 45.3038 126.938 46.4688L130.432 48.2162M130.432 42.25V48.2162M130.432 48.2162L141 53.5L155.062 60.5312C159.722 58.2013 167.278 58.2013 171.938 60.5312C174.267 61.6962 175.432 63.2231 175.432 64.75M175.432 64.75C175.432 66.2769 174.267 67.8038 171.938 68.9688L175.432 70.7162M175.432 64.75V70.7162M16.5676 64.75C16.5676 66.2769 17.7325 67.8038 20.0625 68.9688L16.5676 70.7162M16.5676 64.75V70.7162" stroke="#5F6368"/>
<path d="M51 108.5L65.0625 101.469V93.0312V91.4688L51 98.5V108.5Z" fill="#BBDDFF"/>
<path d="M81.9375 93.0312L96 86V76L81.9375 83.0312C77.2776 80.7013 69.7224 80.7013 65.0625 83.0312C60.4026 85.3612 60.4026 89.1388 65.0625 91.4688V93.0312C69.7224 90.7013 77.2776 90.7013 81.9375 93.0312Z" fill="#BBDDFF"/>
<path d="M141 108.5L155.062 101.469V93.0312V91.4688L141 98.5V108.5Z" fill="#BBDDFF"/>
<path d="M155.062 93.0312C159.722 90.7013 167.278 90.7013 171.938 93.0312L186 86V76L171.938 83.0312C167.278 80.7013 159.722 80.7013 155.062 83.0312C150.403 85.3612 150.403 89.1388 155.062 91.4688V93.0312Z" fill="#BBDDFF"/>
<path d="M130.432 42.25C130.432 43.7769 129.267 45.3038 126.938 46.4688L130.432 48.2162V42.25Z" fill="#BBDDFF"/>
<path d="M175.432 64.75C175.432 66.2769 174.267 67.8038 171.938 68.9688L175.432 70.7162V64.75Z" fill="#BBDDFF"/>
<path d="M96 86L81.9375 93.0312C77.2776 90.7013 69.7224 90.7013 65.0625 93.0312M96 86V76M96 86L106.568 91.2838M65.0625 93.0312V91.4688M65.0625 93.0312V101.469L51 108.5M51 108.5L36.9375 101.469V93.0312M51 108.5V98.5M141 108.5L126.938 101.469C122.278 103.799 114.722 103.799 110.062 101.469C107.734 100.304 106.569 98.7787 106.568 97.2527V91.2838M141 108.5L155.062 101.469V93.0312M141 108.5V98.5M36.9375 93.0312C32.2776 90.7013 24.7224 90.7013 20.0625 93.0312L6 86V76M36.9375 93.0312V91.4688M155.062 93.0312C159.722 90.7013 167.278 90.7013 171.938 93.0312L186 86V76M155.062 93.0312V91.4688M96 76L81.9375 83.0312C77.2776 80.7013 69.7224 80.7013 65.0625 83.0312C60.4026 85.3612 60.4026 89.1388 65.0625 91.4688M96 76L110.062 83.0312C107.733 84.1962 106.568 85.7231 106.568 87.25M65.0625 91.4688L51 98.5M51 98.5L36.9375 91.4688M141 98.5L126.938 91.4688C122.278 93.7987 114.722 93.7987 110.062 91.4688C107.733 90.3038 106.568 88.7769 106.568 87.25M141 98.5L155.062 91.4688M6 76L20.0625 83.0312C24.7224 80.7013 32.2776 80.7013 36.9375 83.0312C41.5974 85.3612 41.5974 89.1388 36.9375 91.4688M6 76L16.5676 70.7162M81.9375 46.4688C86.5974 44.1388 86.5974 40.3612 81.9375 38.0312M81.9375 46.4688C77.2776 48.7987 69.7224 48.7987 65.0625 46.4688L51 53.5L36.9375 60.5312C32.2776 58.2013 24.7224 58.2013 20.0625 60.5312C17.7325 61.6962 16.5676 63.2231 16.5676 64.75M81.9375 46.4688V38.0312M81.9375 38.0312L96 31L110.062 38.0312C114.722 35.7013 122.278 35.7013 126.938 38.0312C129.267 39.1962 130.432 40.7231 130.432 42.25M155.062 91.4688C150.403 89.1388 150.403 85.3612 155.062 83.0312C159.722 80.7013 167.278 80.7013 171.938 83.0312L186 76M186 76L175.432 70.7162M106.568 87.25V91.2838M130.432 42.25C130.432 43.7769 129.267 45.3038 126.938 46.4688L130.432 48.2162M130.432 42.25V48.2162M130.432 48.2162L141 53.5L155.062 60.5312C159.722 58.2013 167.278 58.2013 171.938 60.5312C174.267 61.6962 175.432 63.2231 175.432 64.75M175.432 64.75C175.432 66.2769 174.267 67.8038 171.938 68.9688L175.432 70.7162M175.432 64.75V70.7162M16.5676 64.75C16.5676 66.2769 17.7325 67.8038 20.0625 68.9688L16.5676 70.7162M16.5676 64.75V70.7162" stroke="#5F6368"/>
<path d="M51 53.5L36.9375 60.5312C32.2776 58.2013 24.7224 58.2013 20.0625 60.5312C15.4026 62.8612 15.4026 66.6388 20.0625 68.9688L6 76L20.0625 83.0312C24.7224 80.7013 32.2776 80.7013 36.9375 83.0312C41.5974 85.3612 41.5974 89.1388 36.9375 91.4688L51 98.5L65.0625 91.4688C60.4026 89.1388 60.4026 85.3612 65.0625 83.0312C69.7224 80.7013 77.2776 80.7013 81.9375 83.0312L96 76L81.9375 68.9688C86.5974 66.6388 86.5974 62.8612 81.9375 60.5312C77.2776 58.2013 69.7224 58.2013 65.0625 60.5312L51 53.5Z" fill="white"/>
<path d="M81.9375 38.0312C86.5974 40.3612 86.5974 44.1388 81.9375 46.4688C77.2776 48.7987 69.7224 48.7987 65.0625 46.4688L51 53.5L65.0625 60.5312C69.7224 58.2013 77.2776 58.2013 81.9375 60.5312C86.5974 62.8612 86.5974 66.6388 81.9375 68.9688L96 76L110.062 68.9688C114.722 71.2987 122.278 71.2987 126.938 68.9688C131.597 66.6388 131.597 62.8612 126.938 60.5312L141 53.5L126.938 46.4688C131.597 44.1388 131.597 40.3612 126.938 38.0312C122.278 35.7013 114.722 35.7013 110.062 38.0312L96 31L81.9375 38.0312Z" fill="white"/>
<path d="M126.938 60.5312C131.597 62.8612 131.597 66.6388 126.938 68.9688C122.278 71.2987 114.722 71.2987 110.062 68.9688L96 76L110.062 83.0312C105.403 85.3612 105.403 89.1388 110.062 91.4688C114.722 93.7987 122.278 93.7987 126.938 91.4688L141 98.5L155.062 91.4688C150.403 89.1388 150.403 85.3612 155.062 83.0312C159.722 80.7013 167.278 80.7013 171.938 83.0312L186 76L171.938 68.9688C176.597 66.6388 176.597 62.8612 171.938 60.5312C167.278 58.2013 159.722 58.2013 155.062 60.5312L141 53.5L126.938 60.5312Z" fill="white"/>
<path d="M96 76L81.9375 83.0312C77.2776 80.7013 69.7224 80.7013 65.0625 83.0312C60.4026 85.3612 60.4026 89.1388 65.0625 91.4688L51 98.5L36.9375 91.4688C41.5974 89.1388 41.5974 85.3612 36.9375 83.0312C32.2776 80.7013 24.7224 80.7013 20.0625 83.0312L6 76L20.0625 68.9688C15.4026 66.6388 15.4026 62.8612 20.0625 60.5312C24.7224 58.2013 32.2776 58.2013 36.9375 60.5312L51 53.5M96 76L110.062 83.0312C105.403 85.3612 105.403 89.1388 110.062 91.4688C114.722 93.7987 122.278 93.7987 126.938 91.4688L141 98.5L155.062 91.4688C150.403 89.1388 150.403 85.3612 155.062 83.0312C159.722 80.7013 167.278 80.7013 171.938 83.0312L186 76L171.938 68.9688C176.597 66.6388 176.597 62.8612 171.938 60.5312C167.278 58.2013 159.722 58.2013 155.062 60.5312L141 53.5M96 76L81.9375 68.9688C86.5974 66.6388 86.5974 62.8612 81.9375 60.5312C77.2776 58.2013 69.7224 58.2013 65.0625 60.5312L51 53.5M96 76L110.062 68.9688C114.722 71.2987 122.278 71.2987 126.938 68.9688C131.597 66.6388 131.597 62.8612 126.938 60.5312L141 53.5M51 53.5L65.0625 46.4688C69.7224 48.7987 77.2776 48.7987 81.9375 46.4688C86.5974 44.1388 86.5974 40.3612 81.9375 38.0312L96 31L110.062 38.0312C114.722 35.7013 122.278 35.7013 126.938 38.0312C131.597 40.3612 131.597 44.1388 126.938 46.4688L141 53.5" stroke="#5F6368" stroke-linejoin="round"/>
<path d="M51 110V126.5" stroke="#5F6368" stroke-dasharray="2 2"/>
<path d="M141 110V126.5" stroke="#5F6368" stroke-dasharray="2 2"/>
<path d="M96 88V104.5" stroke="#5F6368" stroke-dasharray="2 2"/>
<path d="M96 106L110.062 113.031C114.722 110.701 122.278 110.701 126.938 113.031C129.267 114.196 130.432 115.723 130.432 117.25C130.432 118.777 129.267 120.304 126.938 121.469L130.432 123.216L141 128.5L126.938 135.531C122.278 133.201 114.722 133.201 110.062 135.531C105.403 137.861 105.403 141.639 110.062 143.969L96 151L81.9375 143.969C77.2776 146.299 69.7224 146.299 65.0625 143.969C62.7325 142.804 61.5676 141.277 61.5676 139.75C61.5676 138.223 62.7325 136.696 65.0625 135.531L51 128.5L65.0625 121.469C69.7224 123.799 77.2776 123.799 81.9375 121.469C86.5974 119.139 86.5974 115.361 81.9375 113.031L96 106Z" fill="#CC66FF"/>
<path d="M65.0625 135.531L51 128.5V138.5L61.5676 143.784V139.75C61.5676 138.223 62.7325 136.696 65.0625 135.531Z" fill="#CC66FF"/>
<path d="M81.9375 153.969L96 161V151L81.9375 143.969C77.2776 146.299 69.7224 146.299 65.0625 143.969C62.7325 142.804 61.5676 141.277 61.5676 139.75V143.784V149.749C61.567 151.276 62.7319 152.803 65.0625 153.969C69.7224 156.299 77.2776 156.299 81.9375 153.969Z" fill="#CC66FF"/>
<path d="M96 161L110.062 153.969V145.531V143.969L96 151V161Z" fill="#CC66FF"/>
<path d="M126.938 145.531L141 138.5V128.5L126.938 135.531C122.278 133.201 114.722 133.201 110.062 135.531C105.403 137.861 105.403 141.639 110.062 143.969V145.531C114.722 143.201 122.278 143.201 126.938 145.531Z" fill="#CC66FF"/>
<path d="M110.062 145.531C114.722 143.201 122.278 143.201 126.938 145.531L141 138.5V128.5M110.062 145.531V143.969M110.062 145.531V153.969L96 161M96 161L81.9375 153.969C77.2776 156.299 69.7224 156.299 65.0625 153.969C62.7319 152.803 61.567 151.276 61.5676 149.749V143.784M96 161V151M141 128.5L126.938 135.531C122.278 133.201 114.722 133.201 110.062 135.531C105.403 137.861 105.403 141.639 110.062 143.969M141 128.5L130.432 123.216M110.062 143.969L96 151M96 151L81.9375 143.969C77.2776 146.299 69.7224 146.299 65.0625 143.969C62.7325 142.804 61.5676 141.277 61.5676 139.75M51 128.5L65.0625 135.531C62.7325 136.696 61.5676 138.223 61.5676 139.75M51 128.5L65.0625 121.469C69.7224 123.799 77.2776 123.799 81.9375 121.469M51 128.5V138.5L61.5676 143.784M81.9375 121.469C86.5974 119.139 86.5974 115.361 81.9375 113.031M81.9375 121.469V113.031M81.9375 113.031L96 106L110.062 113.031C114.722 110.701 122.278 110.701 126.938 113.031C129.267 114.196 130.432 115.723 130.432 117.25M61.5676 139.75V143.784M130.432 117.25C130.432 118.777 129.267 120.304 126.938 121.469L130.432 123.216M130.432 117.25V123.216" stroke="#CC66FF"/>
<path d="M96 106L110.062 113.031C114.722 110.701 122.278 110.701 126.938 113.031C131.597 115.361 131.597 119.139 126.938 121.469L141 128.5L126.938 135.531C122.278 133.201 114.722 133.201 110.062 135.531C105.403 137.861 105.403 141.639 110.062 143.969L96 151L81.9375 143.969C77.2776 146.299 69.7224 146.299 65.0625 143.969C60.4026 141.639 60.4026 137.861 65.0625 135.531L51 128.5L65.0625 121.469C69.7224 123.799 77.2776 123.799 81.9375 121.469C86.5974 119.139 86.5974 115.361 81.9375 113.031L96 106Z" fill="#F6FCFF" stroke="#CC66FF" stroke-linejoin="round"/>
<path fill-rule="evenodd" clip-rule="evenodd" d="M96 118C90.48 118 86 122.48 86 128C86 133.52 90.48 138 96 138C101.52 138 106 133.52 106 128C106 122.48 101.52 118 96 118ZM95 133V131H97V133H95ZM95 123V129H97V123H95Z" fill="#CC66FF"/>
<circle cx="18" cy="151" r="4" fill="#66CCFF"/>
<rect x="141" y="20" width="6" height="6" fill="#CC66FF"/>
<path d="M168 151L172.33 158.5H163.67L168 151Z" fill="#FF66CC"/>
</svg>
